<svg width="100%" style="" viewBox="0 0 40 40" fill="currentColor" xmlns="http://www.w3.org/2000/svg">
<path fill-rule="evenodd" clip-rule="evenodd" d="M34.9999 6.66675H26.4833C24.1626 6.70374 21.8816 7.27399 19.8166 8.33341L18.7833 8.85008C17.143 9.64347 15.3383 10.0375 13.5166 10.0001H4.99992C4.07944 10.0001 3.33325 10.7463 3.33325 11.6667V31.6667C3.33325 32.5872 4.07944 33.3334 4.99992 33.3334H13.5166C15.8306 33.3223 18.1113 32.7806 20.1833 31.7501L21.2166 31.2334C22.8498 30.4112 24.6548 29.9885 26.4833 30.0001H34.9999C35.9204 30.0001 36.6666 29.2539 36.6666 28.3334V8.33341C36.6666 7.41294 35.9204 6.66675 34.9999 6.66675ZM33.3333 21.6667C30.5718 21.6667 28.3333 23.9053 28.3333 26.6667H26.4833C24.1694 26.6796 21.8891 27.2212 19.8166 28.2501L18.7833 28.7667C17.1473 29.5813 15.3441 30.0035 13.5166 30.0001H11.6666C11.6666 27.2387 9.42801 25.0001 6.66659 25.0001V18.3334C9.42801 18.3334 11.6666 16.0948 11.6666 13.3334H13.5166C15.837 13.2946 18.1176 12.7245 20.1833 11.6667L21.2166 11.1501C22.8595 10.3644 24.6624 9.97069 26.4833 10.0001H28.3333C28.3333 12.7615 30.5718 15.0001 33.3333 15.0001V21.6667ZM19.9999 25.0001C22.7613 25.0001 24.9999 22.7615 24.9999 20.0001C24.9999 17.2387 22.7613 15.0001 19.9999 15.0001C17.2385 15.0001 14.9999 17.2387 14.9999 20.0001C14.9999 22.7615 17.2385 25.0001 19.9999 25.0001Z" fill="currentColor"></path>
</svg>